<svg id="Capa_1" data-name="Capa 1" xmlns="http://www.w3.org/2000/svg" viewBox="0 0 580 580"><defs><style>.cls-1{fill:red;}.cls-2{fill:#fff;}</style></defs><title>dish_redwhite</title><rect class="cls-1" width="580" height="580"/><path class="cls-2" d="M389.9,211.78l-5.13-16.91a36.73,36.73,0,0,0-69.54,0l-5.13,16.91a94.85,94.85,0,0,0-2.65,44,41.37,41.37,0,0,0,21.31,28.84L323,413.2a25.35,25.35,0,0,0,6.4,19.7,28,28,0,0,0,39.48,1.77q.92-.85,1.77-1.77a25.05,25.05,0,0,0,6.4-19.16L371.27,284.6a41.37,41.37,0,0,0,21.28-28.82A94.85,94.85,0,0,0,389.9,211.78ZM376.79,253a25.33,25.33,0,0,1-16.6,19.11A8,8,0,0,0,355,280L361.1,415a9.28,9.28,0,0,1-2.4,7.25,12.37,12.37,0,0,1-17.4,0,9.65,9.65,0,0,1-2.35-7.78L345,280a8,8,0,0,0-5.17-7.85A25.33,25.33,0,0,1,323.21,253a78.85,78.85,0,0,1,2.2-36.53l5.13-16.91a20.75,20.75,0,0,1,38.92,0l5.13,16.91A79,79,0,0,1,376.79,253Z"/><path class="cls-2" d="M266,170a8,8,0,0,0-8,8v68.69l-21.66,21.65A8,8,0,0,0,234,274.4l7,140a10.9,10.9,0,0,1-3,8.15,11.26,11.26,0,0,1-15.93.07l-.07-.07a10.87,10.87,0,0,1-3-8.15l7.05-140a8,8,0,0,0-2.34-6.06L202,246.69V178a8,8,0,0,0-16,0v72a8,8,0,0,0,2.34,5.66l21.49,21.49L203,413.62a27,27,0,1,0,54,2.63,22.9,22.9,0,0,0,0-2.62l-6.82-136.48,21.49-21.49A8,8,0,0,0,274,250V178A8,8,0,0,0,266,170Z"/><path class="cls-2" d="M218,170a8,8,0,0,0-8,8v64a8,8,0,0,0,16,0V178A8,8,0,0,0,218,170Z"/><path class="cls-2" d="M242,170a8,8,0,0,0-8,8v64a8,8,0,0,0,16,0V178A8,8,0,0,0,242,170Z"/><path class="cls-2" d="M290,50C157.45,50,50,157.45,50,290S157.45,530,290,530,530,422.55,530,290,422.49,50.15,290,50Zm0,464C166.29,514,66,413.71,66,290S166.29,66,290,66,514,166.29,514,290,413.65,513.86,290,514Z"/><path class="cls-2" d="M316,440.17a8,8,0,0,0-8.74-7.18l-.31,0h0a147.82,147.82,0,0,1-33.9,0,8,8,0,1,0-1.87,15.89,161.94,161.94,0,0,0,37.6,0A8,8,0,0,0,316,440.17Z"/><path class="cls-2" d="M412.4,186.91a8,8,0,0,0-11.27-1l0,0a8,8,0,0,0-1,11.27A144,144,0,0,1,391.65,392a8,8,0,0,0,11.29,11.34A160,160,0,0,0,412.4,186.91Z"/><path d="M236.39,155.74h0Z"/><path class="cls-2" d="M327.74,134.47a161.39,161.39,0,0,0-94.17,5.79,8,8,0,1,0,5.61,15A145.35,145.35,0,0,1,324,150a8,8,0,0,0,3.76-15.55Z"/><path class="cls-2" d="M188,391.6a144,144,0,0,1-14.46-186.3,8,8,0,1,0-12.79-9.62l-.14.19a160,160,0,0,0,16.06,207.06A8,8,0,0,0,188,391.6Z"/></svg>