<?xml version="1.0" encoding="utf-8"?>
<!-- Generator: Adobe Illustrator 22.1.0, SVG Export Plug-In . SVG Version: 6.00 Build 0)  -->
<svg version="1.1" id="Capa_1" xmlns="http://www.w3.org/2000/svg" xmlns:xlink="http://www.w3.org/1999/xlink" x="0px" y="0px"
	 viewBox="0 0 546 546" style="enable-background:new 0 0 546 546;" xml:space="preserve">
<style type="text/css">
	.st0{fill:#FFFFFF;}
</style>
<g>
	<g>
		<path class="st0" d="M372.9,194.8l-5.1-16.9c-6.5-19.2-27.4-29.5-46.6-23c-10.8,3.7-19.3,12.2-23,23l-5.1,16.9
			c-4.3,14.3-5.2,29.3-2.6,44c2.4,12.4,10.2,23,21.3,28.8L306,396.2c-0.8,7.2,1.6,14.3,6.4,19.7c10.4,11.4,28.1,12.2,39.5,1.8
			c0.6-0.6,1.2-1.2,1.8-1.8c4.7-5.2,7.1-12.2,6.4-19.2l-5.8-129.1c11.1-5.9,18.9-16.5,21.3-28.8C378.1,224.1,377.2,209,372.9,194.8z
			 M359.8,236c-1.7,8.9-8.1,16.2-16.6,19.1c-3.2,1.2-5.3,4.4-5.2,7.8l6.1,135c0.3,2.6-0.6,5.3-2.4,7.2c-4.8,4.8-12.6,4.8-17.4,0
			c-1.9-2.1-2.8-5-2.4-7.8l6-134.5c0.2-3.5-1.9-6.6-5.2-7.8c-8.5-3-14.9-10.2-16.6-19.1c-2.1-12.2-1.4-24.7,2.2-36.5l5.1-16.9
			c4-10.7,15.9-16.2,26.7-12.3c5.7,2.1,10.2,6.6,12.3,12.3l5.1,16.9C361.2,211.3,361.9,223.8,359.8,236z"/>
	</g>
</g>
<g>
	<g>
		<path class="st0" d="M249,153c-4.4,0-8,3.6-8,8v68.7l-21.7,21.7c-1.6,1.6-2.5,3.8-2.3,6.1l7,140c0.2,3-0.9,6-3,8.2
			c-4.4,4.4-11.5,4.5-15.9,0.1c0,0,0,0-0.1-0.1c-2.1-2.2-3.2-5.1-3-8.2l7-140c0.1-2.3-0.7-4.5-2.3-6.1L185,229.7V161
			c0-4.4-3.6-8-8-8s-8,3.6-8,8v72c0,2.1,0.8,4.2,2.3,5.7l21.5,21.5L186,396.6c-0.7,14.9,10.8,27.6,25.7,28.3s27.6-10.8,28.3-25.7
			c0-0.9,0-1.8,0-2.6l-6.8-136.5l21.5-21.5c1.5-1.5,2.3-3.5,2.3-5.7v-72C257,156.6,253.4,153,249,153z"/>
	</g>
</g>
<g>
	<g>
		<path class="st0" d="M201,153c-4.4,0-8,3.6-8,8v64c0,4.4,3.6,8,8,8s8-3.6,8-8v-64C209,156.6,205.4,153,201,153z"/>
	</g>
</g>
<g>
	<g>
		<path class="st0" d="M225,153c-4.4,0-8,3.6-8,8v64c0,4.4,3.6,8,8,8s8-3.6,8-8v-64C233,156.6,229.4,153,225,153z"/>
	</g>
</g>
<g>
	<g>
		<path class="st0" d="M273,33C140.5,33,33,140.5,33,273s107.5,240,240,240s240-107.5,240-240C512.8,140.5,405.5,33.2,273,33z
			 M273,497C149.3,497,49,396.7,49,273S149.3,49,273,49s224,100.3,224,224C496.9,396.7,396.7,496.9,273,497z"/>
	</g>
</g>
<g>
	<g>
		<path class="st0" d="M299,423.2c-0.4-4.4-4.3-7.6-8.7-7.2c-0.1,0-0.2,0-0.3,0l0,0c-11.3,1.3-22.6,1.3-33.9,0
			c-4.4-0.5-8.4,2.6-8.9,7c-0.5,4.4,2.6,8.4,7,8.9c12.5,1.5,25.1,1.5,37.6,0C296.2,431.5,299.4,427.6,299,423.2z"/>
	</g>
</g>
<g>
	<g>
		<path class="st0" d="M395.4,169.9c-2.8-3.4-7.9-3.8-11.3-1c0,0,0,0,0,0c-3.4,2.8-3.8,7.9-1,11.3c48.2,57.3,44.5,141.9-8.5,194.8
			c-3.1,3.1-3.1,8.2,0,11.3c3.1,3.1,8.2,3.1,11.3,0C444.9,327.6,449,233.5,395.4,169.9z"/>
	</g>
</g>
<g>
	<g>
		<g>
			<path d="M219.4,138.7C219.4,138.7,219.4,138.7,219.4,138.7C219.4,138.7,219.4,138.7,219.4,138.7L219.4,138.7z"/>
			<path class="st0" d="M310.7,117.5c-31.3-7.5-64.1-5.5-94.2,5.8c-4.1,1.6-6.2,6.2-4.7,10.3c1.2,3.1,4.2,5.2,7.5,5.2
				c1,0,1.9-0.2,2.8-0.5c27.1-10.1,56.6-12,84.8-5.2c4.3,1,8.6-1.6,9.7-5.9C317.7,122.8,315,118.5,310.7,117.5z"/>
		</g>
	</g>
</g>
<g>
	<g>
		<path class="st0" d="M171,374.6c-27-26.9-42.1-63.5-42-101.6c-0.1-30.4,9.6-60.1,27.5-84.7c2.7-3.5,1.9-8.5-1.6-11.2
			s-8.5-1.9-11.2,1.6c0,0.1-0.1,0.1-0.1,0.2c-46.3,63.6-39.4,151.4,16.1,207.1c3.1,3.1,8.2,3.1,11.3,0
			C174.1,382.8,174.1,377.7,171,374.6z"/>
	</g>
</g>
</svg>
